<?xml version="1.0" standalone="no"?>
<!DOCTYPE svg PUBLIC "-//W3C//DTD SVG 20010904//EN"
 "http://www.w3.org/TR/2001/REC-SVG-20010904/DTD/svg10.dtd">
<svg version="1.0" xmlns="http://www.w3.org/2000/svg"
 width="726.000000pt" height="447.000000pt" viewBox="0 0 726.000000 447.000000"
 preserveAspectRatio="xMidYMid meet">

<g transform="translate(0.000000,447.000000) scale(0.100000,-0.100000)"
fill="#000000" stroke="none">
<path d="M1218 2710 c-72 -39 -112 -119 -98 -201 4 -20 35 -86 71 -148 35 -62
71 -125 79 -140 68 -127 198 -345 219 -369 65 -74 150 -92 226 -48 53 31 69
56 237 356 14 25 59 104 101 175 93 162 105 199 80 263 -10 26 -31 60 -47 76
-56 55 -64 56 -463 56 -345 -1 -370 -2 -405 -20z m522 -18 c66 -34 103 -161
61 -214 l-22 -27 -202 -3 c-162 -2 -206 -6 -220 -18 -43 -37 -77 -76 -77 -90
0 -41 -44 -45 -61 -6 -5 11 -20 39 -34 61 -50 80 -63 138 -46 201 13 48 45 80
98 100 50 19 465 15 503 -4z m304 -7 c22 -11 44 -29 50 -40 6 -11 15 -23 20
-27 5 -3 11 -30 13 -60 5 -60 -1 -72 -131 -295 -43 -73 -93 -146 -112 -163
-31 -26 -42 -30 -96 -30 -71 0 -120 26 -139 73 -10 23 -8 32 13 65 13 20 29
48 36 62 6 14 18 34 24 45 51 79 80 131 99 176 22 51 23 52 5 103 -10 28 -27
62 -37 75 -10 13 -16 28 -13 33 4 6 51 9 118 6 85 -3 120 -8 150 -23z m-566
-282 c10 -16 51 -85 91 -154 40 -69 88 -141 107 -160 32 -31 40 -33 106 -36
40 -1 74 -6 76 -12 4 -12 -72 -146 -102 -180 -25 -28 -91 -60 -124 -61 -44 0
-120 40 -145 78 -47 70 -184 317 -196 354 -24 74 9 145 83 179 57 26 81 24
104 -8z m285 21 c6 -6 -2 -21 -75 -144 -29 -50 -50 -75 -62 -75 -18 0 -43 36
-92 130 -8 17 -21 41 -29 54 -8 14 -12 29 -9 33 6 9 258 11 267 2z"/>
<path d="M2651 2643 c47 -7 52 -17 105 -233 7 -30 25 -95 39 -145 14 -49 30
-112 36 -140 6 -27 14 -57 19 -66 4 -8 13 -42 19 -75 16 -77 30 -114 46 -114
11 0 65 146 65 173 0 5 6 23 14 40 8 18 26 73 41 122 15 50 33 104 40 120 7
17 18 49 24 73 8 29 17 42 30 42 13 0 24 -20 44 -82 15 -46 33 -103 41 -128 8
-25 33 -106 56 -180 53 -171 58 -182 72 -178 10 4 41 108 34 115 -2 2 -9 -8
-16 -21 -16 -31 -32 -18 -49 39 -7 22 -24 78 -38 125 -14 47 -30 94 -34 105
-5 11 -15 45 -24 75 -21 80 -51 178 -70 233 -22 61 -14 94 23 100 15 2 -16 4
-68 4 -54 0 -80 -2 -61 -6 25 -4 40 -15 54 -39 29 -49 25 -113 -12 -217 -18
-49 -39 -112 -46 -140 -8 -27 -19 -59 -24 -70 -12 -26 -40 -110 -52 -159 -21
-83 -53 -97 -65 -28 -3 21 -12 60 -19 87 -27 100 -45 172 -70 280 -14 61 -33
131 -41 157 -8 25 -14 63 -12 84 3 34 7 40 33 45 17 4 -13 6 -65 6 -52 0 -83
-2 -69 -4z"/>
<path d="M3477 2643 c56 -7 56 -15 7 -209 -25 -98 -52 -206 -60 -239 -8 -33
-18 -71 -23 -85 -5 -14 -12 -43 -16 -65 -11 -66 11 -27 24 44 7 35 16 71 21
80 4 9 15 45 23 81 9 36 25 99 37 140 12 41 28 103 36 138 17 77 38 110 72
115 15 2 -13 4 -63 4 -49 0 -76 -2 -58 -4z"/>
<path d="M4240 2641 l45 -6 3 -355 c1 -195 0 -365 -3 -377 -3 -14 -15 -23 -33
-26 -15 -2 11 -4 58 -4 47 0 73 2 59 4 -35 5 -39 21 -39 181 l0 132 28 11 c18
7 60 8 127 2 l100 -8 22 -45 c12 -25 25 -65 29 -89 4 -24 13 -56 20 -70 8 -14
14 -31 14 -38 0 -7 14 -28 31 -48 27 -30 37 -35 73 -34 l41 1 -33 9 c-37 11
-78 66 -88 119 -4 19 -10 40 -14 45 -4 6 -13 32 -20 59 -8 27 -22 58 -32 68
-24 24 -23 35 3 43 12 4 38 23 60 42 46 42 65 113 55 212 -7 79 -40 131 -100
161 -39 18 -60 20 -247 18 -112 0 -184 -4 -159 -7z m392 -29 c64 -40 83 -83
83 -187 0 -78 -3 -95 -24 -128 -38 -62 -88 -78 -235 -75 l-121 3 -3 185 c-1
102 0 196 3 209 6 23 6 23 133 19 111 -3 132 -7 164 -26z"/>
<path d="M4984 2564 c-8 -31 7 -48 35 -39 23 7 28 34 9 53 -19 19 -37 14 -44
-14z"/>
<path d="M3786 2380 c-50 -25 -72 -45 -105 -95 -24 -37 -26 -48 -26 -151 0
-96 3 -116 24 -156 14 -27 42 -60 70 -80 44 -31 51 -33 131 -33 71 0 91 4 120
22 19 13 31 23 27 23 -4 0 -18 -6 -30 -14 -54 -34 -163 -30 -220 8 -17 12 -45
46 -61 76 -24 44 -30 67 -30 120 l-1 65 203 3 c228 3 224 1 203 75 -19 62 -58
114 -105 137 -56 26 -146 26 -200 0z m171 -5 c21 -9 46 -23 56 -33 29 -25 59
-97 55 -129 l-3 -28 -165 -3 c-188 -3 -210 0 -210 29 0 24 43 111 64 128 23
19 108 50 139 51 15 0 44 -7 64 -15z"/>
<path d="M5324 2392 c-11 -4 -33 -16 -49 -28 -24 -18 -29 -30 -32 -75 -7 -94
9 -109 219 -203 101 -46 126 -110 65 -171 -26 -26 -44 -34 -88 -40 -29 -3 -74
-2 -99 4 -50 11 -69 6 -24 -6 44 -12 186 -9 212 6 32 17 62 70 62 110 0 50
-41 98 -114 131 -33 15 -81 37 -106 48 -25 11 -55 29 -68 39 -26 21 -38 77
-24 113 11 30 80 68 132 73 25 3 21 4 -15 4 -27 1 -59 -2 -71 -5z"/>
<path d="M5841 2373 c-70 -36 -106 -89 -121 -176 -28 -160 36 -296 154 -328
44 -12 163 -6 179 10 5 5 -11 5 -40 -1 -68 -13 -135 -1 -177 30 -43 34 -83
111 -92 179 -11 84 -13 83 217 83 l199 0 0 23 c0 45 -30 123 -57 149 -67 64
-173 76 -262 31z m185 -3 c60 -26 78 -48 100 -117 15 -47 15 -56 3 -64 -14 -9
-343 -11 -366 -2 -24 10 15 110 59 150 57 53 130 64 204 33z"/>
<path d="M4988 2376 c-12 -9 -14 -16 -6 -24 8 -8 14 -297 9 -449 -1 -14 -9
-23 -23 -26 -13 -2 9 -4 47 -4 39 0 60 2 48 4 -27 5 -24 -20 -24 291 0 201 -2
222 -17 222 -9 0 -25 -6 -34 -14z"/>
<path d="M5460 2380 c20 -13 33 -13 25 0 -3 6 -14 10 -23 10 -15 0 -15 -2 -2
-10z"/>
<path d="M5530 2343 c0 -3 9 -16 20 -30 l20 -26 0 25 c0 17 -7 27 -20 31 -11
3 -20 3 -20 0z"/>
<path d="M5220 1935 c0 -32 2 -34 19 -23 17 11 18 14 4 35 -20 31 -23 29 -23
-12z"/>
<path d="M6089 1913 c-13 -16 -12 -17 4 -4 16 13 21 21 13 21 -2 0 -10 -8 -17
-17z"/>
</g>
</svg>
