<?xml version="1.0" standalone="no"?>
<!DOCTYPE svg PUBLIC "-//W3C//DTD SVG 20010904//EN"
 "http://www.w3.org/TR/2001/REC-SVG-20010904/DTD/svg10.dtd">
<svg version="1.0" xmlns="http://www.w3.org/2000/svg"
 width="726.000000pt" height="447.000000pt" viewBox="0 0 726.000000 447.000000"
 preserveAspectRatio="xMidYMid meet">

<g transform="translate(0.000000,447.000000) scale(0.100000,-0.100000)"
fill="#000000" stroke="none">
<path d="M1246 2726 c-95 -26 -155 -125 -134 -221 8 -33 250 -467 350 -628 70
-111 223 -133 306 -44 17 19 318 531 366 625 55 107 -13 245 -134 271 -76 16
-691 14 -754 -3z m509 -56 c53 -50 68 -108 43 -176 l-11 -32 -196 -4 c-163 -3
-201 -6 -228 -21 -44 -23 -72 -54 -92 -101 l-17 -40 -55 95 c-49 85 -54 100
-54 154 0 68 18 100 75 134 33 20 47 21 272 19 l236 -3 27 -25z m281 14 c55
-26 79 -69 79 -139 0 -58 -3 -66 -103 -237 -127 -218 -160 -249 -249 -235 -43
7 -77 29 -99 62 -16 25 -15 28 77 188 82 143 93 169 97 220 4 51 1 64 -26 107
l-31 50 110 0 c82 0 120 -4 145 -16z m-491 -407 c44 -78 94 -158 112 -178 39
-43 96 -64 158 -57 l46 6 -32 -57 c-80 -143 -121 -181 -197 -181 -58 0 -111
30 -144 83 -97 157 -188 328 -194 363 -12 80 57 164 136 164 35 -1 36 -3 115
-143z m154 38 c-33 -58 -64 -107 -68 -109 -4 -3 -25 25 -46 62 -21 37 -49 86
-62 110 l-25 42 130 0 131 0 -60 -105z"/>
<path d="M2600 2650 c0 -5 14 -10 30 -10 17 0 38 -8 48 -18 11 -11 53 -151
117 -390 90 -339 100 -372 120 -372 18 0 31 32 114 290 52 160 97 290 101 290
6 0 15 -26 130 -387 51 -159 65 -193 81 -193 13 0 21 12 30 43 198 744 195
737 255 737 13 0 24 5 24 10 0 6 -42 10 -105 10 -63 0 -105 -4 -105 -10 0 -5
10 -10 23 -10 13 0 31 -6 41 -13 17 -12 13 -32 -64 -330 -44 -175 -85 -328
-89 -340 -9 -23 -11 -15 -153 441 -68 221 -68 234 -9 240 17 2 31 7 31 13 0 5
-50 9 -115 9 -70 0 -115 -4 -115 -10 0 -5 12 -10 26 -10 43 0 62 -18 81 -76
l17 -55 -94 -285 c-52 -156 -97 -280 -101 -276 -3 4 -43 155 -88 336 -88 352
-88 356 -30 356 16 0 29 5 29 10 0 6 -45 10 -115 10 -70 0 -115 -4 -115 -10z"/>
<path d="M4180 2650 c0 -5 17 -10 38 -10 21 0 43 -5 50 -12 9 -9 12 -106 12
-375 l0 -363 -27 -6 c-82 -18 -71 -22 56 -23 137 -1 158 4 80 17 l-44 8 -3
157 -3 157 116 0 115 0 19 -32 c11 -17 29 -67 41 -112 31 -116 55 -161 94
-180 38 -18 96 -21 96 -6 0 6 -9 10 -21 10 -39 0 -76 51 -107 151 -32 104 -57
159 -72 159 -23 0 -6 17 38 37 28 14 57 37 72 60 23 33 25 46 25 137 0 88 -3
106 -23 138 -31 50 -75 75 -152 87 -84 14 -400 15 -400 1z m440 -42 c62 -31
90 -88 90 -179 0 -76 -11 -113 -43 -147 -41 -44 -74 -54 -204 -60 l-123 -5 0
207 0 206 118 0 c102 0 124 -3 162 -22z"/>
<path d="M4977 2583 c-4 -3 -7 -19 -7 -34 0 -22 6 -30 25 -35 43 -11 73 34 43
64 -13 13 -50 16 -61 5z"/>
<path d="M3774 2382 c-148 -70 -184 -340 -61 -463 97 -96 282 -86 352 19 27
41 44 102 28 102 -6 0 -13 -12 -16 -27 -18 -82 -93 -137 -187 -137 -30 1 -66
7 -80 14 -73 37 -120 126 -120 225 l0 55 211 0 212 0 -7 46 c-8 62 -41 118
-88 151 -53 36 -181 44 -244 15z m193 -19 c43 -20 83 -79 90 -132 l6 -41 -182
0 c-201 0 -195 -3 -165 68 19 46 60 90 99 108 41 18 110 17 152 -3z"/>
<path d="M4983 2382 c-54 -22 -63 -32 -27 -29 l29 2 3 -232 c1 -128 1 -233 0
-233 -2 0 -21 -7 -43 -15 -39 -14 -37 -14 70 -14 102 1 107 1 70 13 l-40 12
-3 257 c-1 141 -6 257 -10 256 -4 0 -26 -8 -49 -17z"/>
<path d="M5295 2385 c-45 -24 -65 -55 -65 -103 0 -85 32 -118 175 -176 101
-41 145 -79 145 -126 0 -46 -45 -88 -105 -99 -57 -11 -122 -2 -155 22 -29 20
-60 66 -60 90 0 9 -4 17 -10 17 -6 0 -10 -34 -10 -81 0 -51 4 -78 10 -74 6 3
10 17 10 30 0 30 14 39 31 19 42 -51 187 -67 263 -30 67 33 93 104 62 164 -22
43 -45 58 -156 106 -58 25 -115 57 -127 71 -25 28 -30 82 -12 117 24 44 119
61 186 33 40 -17 57 -35 79 -82 8 -18 16 -33 19 -33 3 0 5 35 4 78 -1 65 -2
72 -10 45 -5 -18 -12 -33 -15 -33 -3 0 -21 12 -40 27 -30 22 -48 27 -112 30
-58 3 -85 0 -107 -12z"/>
<path d="M5831 2374 c-68 -34 -105 -90 -121 -184 -24 -141 24 -260 125 -313
51 -27 174 -30 220 -5 47 25 85 71 100 122 16 53 2 63 -15 11 -27 -81 -93
-128 -180 -129 -118 -2 -195 85 -202 224 l-3 65 208 3 207 2 0 38 c0 45 -29
109 -61 139 -65 60 -188 71 -278 27z m192 -8 c42 -17 83 -66 97 -114 18 -65
27 -62 -175 -62 l-185 0 6 28 c10 39 39 94 61 114 49 45 135 60 196 34z"/>
</g>
</svg>
